<svg width="55" height="55" viewBox="0 0 55 55" fill="none" xmlns="http://www.w3.org/2000/svg">
<g id="Isolation_Mode" clip-path="url(#clip0_17_501)">
<path id="Vector" d="M38.6162 50.8185C39.123 50.6491 39.5369 50.4846 39.9643 50.3844C40.0754 50.3584 40.272 50.5007 40.3599 50.6182C41.0473 51.547 41.7164 52.4894 42.3929 53.4268C42.4454 53.4986 42.5064 53.5641 42.5944 53.6705C42.7201 52.8134 42.7335 52.0429 41.9496 51.4592C42.3367 51.1623 42.3367 50.6144 42.8544 50.492C43.6689 50.2991 43.8947 50.962 44.2818 51.4827C43.6151 52.0751 43.7958 52.8752 43.7873 53.7583C44.0632 53.4145 44.2806 53.1535 44.4882 52.8839C45.0694 52.1307 45.6555 51.38 46.222 50.6144C46.3832 50.3968 46.5187 50.3634 46.7568 50.4796C47.3625 50.7765 48.0035 51.0065 48.5908 51.3367C49.8521 52.0441 50.5823 53.5641 50.3821 54.9926H40.2365C40.4563 53.3403 39.8947 51.9835 38.6162 50.8185Z" fill="black"/>
<path id="Vector_2" d="M26.5928 54.9963C23.2545 54.9963 19.9406 54.9963 16.6255 54.9963C16.3117 53.882 16.8184 52.4869 17.816 51.7473C18.0431 51.5791 18.2934 51.4406 18.5328 51.2872C19.0468 50.9595 19.4778 50.8371 20.1238 51.2007C21.2312 51.824 22.4181 51.6743 23.495 50.9669C23.6904 50.8383 23.8394 50.8 24.0396 50.9212C24.34 51.103 24.6477 51.2736 24.9542 51.4455C26.329 52.2173 26.8065 53.4207 26.5928 54.9963Z" fill="black"/>
<path id="Vector_3" d="M46.3051 45.3384C46.3051 47.4137 44.8911 48.8941 42.9521 48.8471C41.6603 48.8162 40.5076 47.8095 40.1218 46.3736C39.6834 44.7448 40.2903 43.1506 41.5931 42.4407C43.6713 41.3091 46.3942 42.6584 46.3051 45.3372V45.3384Z" fill="black"/>
<path id="Vector_4" d="M8.71448 45.3372C8.71448 43.7628 9.45931 42.6683 10.8354 42.2069C12.1395 41.7704 13.6059 42.2008 14.4057 43.3435C15.2287 44.5222 15.2287 45.8084 14.6011 47.0699C14.0186 48.2399 13.0577 48.8731 11.7341 48.8459C10.198 48.8137 8.80606 47.3766 8.7157 45.7478C8.70838 45.6117 8.7157 45.4745 8.7157 45.3372H8.71448Z" fill="black"/>
<path id="Vector_5" d="M38.5674 54.9938H28.3669C28.1386 53.4157 28.5452 52.2618 30.3633 51.0473C30.8591 51.5297 31.3609 52.0194 31.8652 52.5079C32.3609 52.9878 32.8603 53.4652 33.3585 53.945C33.7688 53.5394 34.1583 53.1473 34.5539 52.7627C35.0875 52.242 35.6223 51.7213 36.1681 51.2143C36.2438 51.1438 36.4343 51.0844 36.4953 51.1289C37.3403 51.7374 38.1315 52.4152 38.4172 53.4751C38.5454 53.9488 38.5198 54.4645 38.5674 54.9951V54.9938Z" fill="black"/>
<path id="Vector_6" d="M10.4154 55H4.62037C4.51902 54.3655 4.63258 53.7546 4.86457 53.1733C5.27606 52.1369 5.99891 51.3961 7.0319 50.9818C7.75719 50.6911 8.4837 50.4054 9.27981 50.0901C9.66077 51.7337 10.0332 53.344 10.4166 55H10.4154Z" fill="black"/>
<path id="Vector_7" d="M31.0569 47.3259C31.074 45.8418 32.1362 44.7571 33.5514 44.7782C34.9666 44.7992 36.0191 45.9234 35.9947 47.3865C35.9715 48.7741 34.8347 49.8563 33.4232 49.8341C32.1069 49.813 31.041 48.6814 31.0569 47.3259Z" fill="black"/>
<path id="Vector_8" d="M23.9627 47.3383C23.9627 48.7457 22.8833 49.8427 21.5072 49.834C20.125 49.8254 19.0773 48.7643 19.0761 47.3717C19.0749 45.8875 20.1384 44.7547 21.5194 44.7707C22.9004 44.7868 23.9627 45.9024 23.9639 47.3395L23.9627 47.3383Z" fill="black"/>
<path id="Vector_9" d="M16.4302 50.8482C15.1859 51.9885 14.6975 53.3601 14.8367 54.9864H13.4203C13.7537 53.3675 14.0833 51.7708 14.4289 50.0925C15.0968 50.3448 15.7195 50.5798 16.4289 50.8482H16.4302Z" fill="black"/>
<path id="Vector_10" d="M12.3751 54.9913H11.3702C11.3702 54.3186 11.3189 53.6606 11.3849 53.0162C11.4508 52.3657 11.1614 51.9217 10.7255 51.5C10.9306 51.197 11.1126 50.9125 11.3104 50.6392C11.4703 50.4166 12.308 50.4351 12.4716 50.6553C12.4801 50.6664 12.4887 50.6763 12.496 50.6874C12.6633 50.9348 12.9588 51.1821 12.96 51.4307C12.96 51.6719 12.6425 51.9032 12.496 52.1579C12.4203 52.2903 12.3837 52.4622 12.3812 52.618C12.3702 53.3959 12.3763 54.1738 12.3763 54.9913H12.3751Z" fill="black"/>
<path id="Vector_11" d="M33.4598 17.6313V30.2809C33.8542 30.2598 34.2205 30.2932 34.5185 29.9704C34.6198 29.8604 34.8359 29.827 35.002 29.8183C35.4513 29.7973 35.8445 30.0817 36.024 30.5455C36.1998 30.9994 36.1595 31.4422 35.8274 31.8095C35.5002 32.1719 35.0753 32.183 34.6284 32.0816C34.2706 32 33.9092 31.9183 33.5441 31.8825C33.1961 31.8491 32.8432 31.8763 32.4916 31.8763C31.8847 31.8763 31.8102 31.8033 31.8102 31.2022C31.8102 30.0545 31.8102 28.9056 31.8102 27.7579C31.8102 25.4204 31.8102 23.0829 31.8102 20.7454C31.8102 20.5983 31.8102 20.4498 31.8102 20.2755H30.2888V34.262C30.3987 34.2719 30.5281 34.2929 30.6564 34.2941C31.2632 34.2991 31.8713 34.2904 32.4781 34.3028C33.0532 34.3139 33.5453 34.2657 34.0508 33.8341C34.7785 33.212 35.6772 33.2219 36.51 33.7351C37.3671 34.2632 37.6883 35.0795 37.5344 36.0516C37.3903 36.9693 36.8775 37.6285 35.9556 37.8857C34.8506 38.1937 33.7419 37.5963 33.3585 36.4968C33.3011 36.3323 33.2657 36.1604 33.2107 35.9588C32.0459 35.9588 30.8749 35.9514 29.7027 35.9613C28.555 35.97 28.555 35.9749 28.555 34.8111C28.555 25.0098 28.5745 15.2072 28.5391 5.40588C28.533 3.86735 29.7479 2.54402 31.3267 2.50691C32.2437 2.48589 33.1619 2.49207 34.0801 2.49455C34.5466 2.49578 34.9006 2.81116 34.947 3.24402C34.9922 3.65463 34.6967 4.09863 34.2572 4.16541C33.8469 4.22849 33.4244 4.20993 33.0081 4.21612C32.4549 4.22354 31.9006 4.20499 31.3487 4.22478C30.6832 4.24827 30.2534 4.68609 30.2534 5.33786C30.251 9.65787 30.2534 13.9779 30.2534 18.2979C30.2534 18.3783 30.262 18.4587 30.2693 18.5724H31.809C31.809 17.933 31.809 17.2961 31.809 16.6592C31.809 15.9827 31.9177 15.8726 32.577 15.8738C34.0081 15.8763 35.4379 15.885 36.869 15.8751C37.0436 15.8751 37.2524 15.8256 37.3842 15.7192C37.9459 15.2715 38.4758 14.7842 39.0338 14.3316C39.2658 14.1424 39.3049 13.9667 39.2255 13.6724C38.8763 12.38 39.2414 11.2706 40.25 10.4432C41.2561 9.61705 42.4197 9.47606 43.5907 10.0635C44.7751 10.6559 45.3905 11.654 45.3148 13.012C45.1866 15.3408 42.808 16.6691 40.67 15.603C40.3721 15.4546 40.2024 15.4842 39.9704 15.6957C39.3379 16.2708 38.6944 16.8336 38.0301 17.3715C37.858 17.5113 37.6003 17.6041 37.3806 17.609C36.234 17.6362 35.0862 17.6276 33.9397 17.6313C33.7932 17.6313 33.6467 17.6313 33.4598 17.6313ZM42.2158 11.4066C41.3929 11.4005 40.7274 12.0498 40.7225 12.8648C40.7176 13.6081 41.3941 14.2821 42.1609 14.2982C42.9729 14.3155 43.6945 13.6501 43.6994 12.8821C43.7043 12.0906 43.0229 11.4141 42.2171 11.4066H42.2158ZM35.3769 36.3744C35.7334 36.3768 36.0875 36.0194 36.0826 35.662C36.0777 35.3145 35.7395 34.9892 35.3891 34.9954C35.0203 35.0016 34.7187 35.3071 34.7187 35.6744C34.7187 36.038 35.0337 36.3719 35.3781 36.3731L35.3769 36.3744Z" fill="white"/>
<path id="Vector_12" d="M21.5585 30.2747V17.6461C21.4168 17.6399 21.274 17.6276 21.1323 17.6276C19.9577 17.6251 18.7831 17.6375 17.6097 17.6127C17.3911 17.6078 17.1383 17.5064 16.9637 17.3678C16.2861 16.8274 15.6243 16.2634 14.9759 15.6871C14.7415 15.4793 14.5742 15.4447 14.2775 15.6042C12.4862 16.5689 10.2627 15.5758 9.75479 13.6093C9.44831 12.4233 9.93917 11.074 10.9416 10.343C12.0027 9.56882 13.4313 9.54038 14.5168 10.2713C15.5522 10.9688 16.0809 12.2674 15.7732 13.4894C15.6707 13.8938 15.7195 14.1597 16.0785 14.3712C16.2287 14.459 16.3703 14.5765 16.4827 14.71C17.3337 15.7118 18.3948 16.0309 19.683 15.8973C20.6317 15.7996 21.5975 15.8788 22.5561 15.8825C23.0921 15.885 23.224 16.0198 23.2264 16.559C23.2288 17.1329 23.2166 17.7079 23.2386 18.2818C23.2423 18.3882 23.3693 18.5737 23.4486 18.5786C23.8894 18.6083 24.3339 18.5922 24.804 18.5922C24.804 17.2837 24.804 16.0148 24.804 14.7447C24.8052 11.6824 24.8076 8.61899 24.8088 5.55677C24.8088 4.62425 24.4084 4.21983 23.4743 4.21983C22.6513 4.21983 21.8271 4.22601 21.0041 4.22354C20.473 4.2223 20.0969 3.85746 20.0847 3.34296C20.0725 2.85568 20.4315 2.50568 20.9846 2.50815C22.0225 2.51433 23.0689 2.46486 24.0958 2.57865C25.3546 2.7184 26.4914 3.78078 26.4865 5.36136C26.4621 15.1367 26.4731 24.9133 26.4719 34.6887C26.4719 34.8804 26.478 35.0708 26.4792 35.2625C26.4804 35.7968 26.3388 35.9514 25.8125 35.9539C24.6245 35.9576 23.4364 35.9526 22.2484 35.9514C22.1031 35.9514 21.9577 35.9514 21.8063 35.9514C21.7795 36.0862 21.7624 36.1777 21.7416 36.268C21.4303 37.5765 20.2617 38.2456 18.9699 37.856C17.7953 37.5023 17.1603 36.1443 17.5914 34.9076C18.1616 33.2751 20.0957 32.8657 21.2935 34.1198C21.379 34.2088 21.5072 34.3115 21.6171 34.3127C22.655 34.3275 23.6941 34.3214 24.7734 34.3214V20.2569C24.3412 20.2569 23.887 20.2445 23.4352 20.2705C23.3668 20.2742 23.2606 20.4511 23.2545 20.5525C23.2313 20.9062 23.2423 21.2624 23.2423 21.6186C23.2386 24.7773 23.2362 27.9347 23.2325 31.0934C23.2325 31.8256 23.1727 31.8825 22.4425 31.8825C22.0921 31.8825 21.738 31.859 21.39 31.8899C21.0493 31.9196 20.7099 31.9851 20.3777 32.0692C19.9467 32.178 19.534 32.1904 19.2056 31.8528C18.8698 31.5065 18.7538 31.0749 18.9223 30.6061C19.0834 30.1547 19.4241 29.8839 19.8881 29.843C20.0981 29.8245 20.3985 29.8789 20.5206 30.0211C20.8149 30.365 21.1519 30.3105 21.5597 30.2784L21.5585 30.2747ZM14.247 12.8932C14.2457 12.0584 13.6181 11.4301 12.7829 11.4289C11.9526 11.4289 11.325 12.0448 11.3324 12.8537C11.3397 13.6415 12.0088 14.2994 12.7964 14.292C13.5888 14.2846 14.2482 13.6489 14.247 12.892V12.8932ZM19.6244 34.9843C19.2483 34.9806 18.9528 35.2638 18.9406 35.6397C18.9284 36.012 19.2458 36.362 19.6085 36.3769C19.9663 36.3917 20.3142 36.0504 20.3094 35.688C20.3045 35.2935 20.0078 34.9892 19.6231 34.9843H19.6244Z" fill="white"/>
<path id="Vector_13" d="M12.5131 26.6374C11.4703 26.6336 10.7731 26.1971 10.474 25.2188C10.159 24.1886 10.7536 22.9914 11.7524 22.6043C12.7952 22.1999 13.8843 22.65 14.3385 23.6976C14.4265 23.9016 14.5278 23.9561 14.7268 23.9462C15.1176 23.9276 15.5095 23.914 15.9002 23.9289C16.1273 23.9375 16.2201 23.8497 16.3105 23.6456C16.6719 22.8356 17.6085 22.3297 18.4326 22.4695C19.4363 22.6389 20.1983 23.4106 20.2972 24.3555C20.4718 26.0215 19.0578 27.2656 17.5364 26.7858C17.0053 26.6188 16.628 26.2552 16.3545 25.784C16.2299 25.5688 16.0968 25.476 15.8441 25.4946C15.4411 25.523 15.0345 25.5218 14.6304 25.5131C14.2982 25.5057 14.159 25.6863 14.1566 25.9868C14.1517 26.9156 14.1456 27.8457 14.1761 28.7732C14.181 28.9093 14.3544 29.0812 14.4924 29.1641C15.8612 29.9791 16.1847 31.5448 15.203 32.7569C14.5644 33.5447 13.7097 33.7809 12.7634 33.5385C11.8293 33.2998 11.2408 32.6357 11.0869 31.6846C10.927 30.7014 11.1944 29.8195 12.0992 29.2853C12.4447 29.0812 12.54 28.8536 12.5216 28.4764C12.4911 27.8791 12.5131 27.2792 12.5131 26.6361V26.6374ZM13.3361 32.0259C13.8086 32.0296 14.2201 31.6438 14.214 31.201C14.2079 30.7397 13.8172 30.3551 13.3532 30.3538C12.8965 30.3526 12.5302 30.7187 12.5314 31.1775C12.5314 31.6376 12.8977 32.0235 13.3361 32.0272V32.0259ZM18.2214 24.0575C17.8698 24.0365 17.6243 24.2541 17.6085 24.6004C17.5926 24.9566 17.838 25.2312 18.1848 25.2448C18.5047 25.2571 18.8014 25.0024 18.8234 24.6969C18.8454 24.3902 18.5511 24.076 18.2214 24.0562V24.0575ZM12.9551 24.614C12.916 24.3246 12.7842 24.0995 12.4569 24.0834C12.1981 24.0711 11.9453 24.3877 11.9746 24.6845C12.0039 24.9789 12.1602 25.1792 12.4691 25.1681C12.7927 25.1557 12.9429 24.9455 12.9551 24.614Z" fill="white"/>
<path id="Vector_14" d="M42.4832 26.6646C42.4832 27.3967 42.4661 28.1066 42.4979 28.8141C42.504 28.9526 42.6823 29.1171 42.8202 29.2086C44.0657 30.0323 44.3221 31.718 43.3441 32.8372C42.6981 33.5768 41.8654 33.7784 40.9509 33.5162C39.996 33.2417 39.4001 32.5701 39.2671 31.572C39.1364 30.5913 39.5113 29.7725 40.3635 29.2853C40.7799 29.0478 40.869 28.7881 40.8507 28.3552C40.8178 27.5773 40.8336 26.7969 40.8397 26.019C40.8422 25.6813 40.7201 25.5008 40.3635 25.528C40.1889 25.5416 40.0119 25.5428 39.8373 25.5305C39.2597 25.4872 38.8067 25.5515 38.4282 26.1488C37.9642 26.881 36.8787 27.0628 36.046 26.7301C35.2425 26.4098 34.7016 25.57 34.7151 24.6647C34.7285 23.747 35.3134 22.8962 36.129 22.6068C37.1937 22.2295 38.2267 22.629 38.7261 23.6395C38.8434 23.8769 38.9789 23.9647 39.2231 23.9326C39.3293 23.919 39.4392 23.9202 39.5467 23.9301C40.1376 23.9808 40.5858 23.9301 40.9435 23.2697C41.3965 22.4336 42.5577 22.2493 43.4259 22.6847C44.3282 23.1373 44.7751 24.2084 44.4869 25.2225C44.2293 26.1303 43.7067 26.5137 42.4808 26.6658L42.4832 26.6646ZM42.4405 31.2035C42.4442 30.7434 42.0461 30.3377 41.5931 30.3427C41.1645 30.3464 40.7933 30.7484 40.7958 31.2047C40.7994 31.6549 41.178 32.0371 41.6188 32.0346C42.0693 32.0321 42.4356 31.6623 42.4405 31.2035ZM37.4416 24.6684C37.4392 24.3617 37.1522 24.0723 36.8494 24.0698C36.5197 24.0674 36.2633 24.3221 36.2572 24.6561C36.2523 24.9863 36.5124 25.2584 36.8372 25.2596C37.1535 25.2621 37.4441 24.9764 37.4416 24.6684ZM41.9985 24.6796C42.029 24.9665 42.1902 25.1755 42.504 25.1681C42.8141 25.1607 42.9851 24.9554 42.9936 24.6388C43.001 24.3444 42.7335 24.0649 42.4637 24.0958C42.1475 24.1329 42.0058 24.3407 41.9985 24.6796Z" fill="white"/>
<path id="Vector_15" d="M33.472 8.41245V12.2464C33.8261 12.2934 34.1351 12.3404 34.4379 12.0362C34.7407 11.7319 35.1388 11.7999 35.4892 12.0151C35.9068 12.2711 36.1156 12.6644 36.068 13.153C35.9788 14.0496 35.0496 14.4627 34.3133 13.963C34.1912 13.8802 34.0203 13.8356 33.8713 13.8319C33.3451 13.8183 32.8188 13.827 32.2925 13.8344C31.9519 13.8394 31.8053 13.6724 31.8066 13.3323C31.8114 11.3498 31.8115 9.36846 31.8127 7.38594C31.8127 7.01491 31.9922 6.83434 32.3609 6.83681C32.9946 6.84176 33.6296 6.8331 34.2633 6.84547C34.4806 6.84918 34.5868 6.8059 34.6516 6.55978C34.9226 5.54316 35.6992 4.93344 36.709 4.89757C37.5869 4.86665 38.5002 5.52956 38.8104 6.42126C39.1205 7.31544 38.8104 8.38524 38.0729 8.96899C37.2817 9.59479 35.9776 9.55645 35.2865 8.828C34.9751 8.50026 34.665 8.35556 34.2315 8.4075C33.9934 8.43595 33.7492 8.41245 33.4745 8.41245H33.472ZM36.7151 7.85714C37.1058 7.86333 37.3842 7.59866 37.3964 7.21279C37.4086 6.80961 37.1254 6.50289 36.7359 6.49918C36.3622 6.49547 36.0472 6.81208 36.0399 7.19671C36.0338 7.55661 36.3354 7.85219 36.7151 7.85714Z" fill="white"/>
<path id="Vector_16" d="M42.2158 11.4066C43.0217 11.4128 43.703 12.0906 43.6982 12.8821C43.6933 13.6501 42.9716 14.3155 42.1597 14.2982C41.3929 14.2821 40.7164 13.6081 40.7213 12.8648C40.7262 12.0498 41.3916 11.3992 42.2146 11.4066H42.2158Z" fill="black"/>
<path id="Vector_17" d="M35.3769 36.3744C35.0325 36.3719 34.7187 36.0392 34.7175 35.6756C34.7175 35.3071 35.0191 35.0016 35.3878 34.9966C35.7395 34.9904 36.0777 35.3157 36.0814 35.6632C36.0863 36.0207 35.7322 36.3769 35.3756 36.3756L35.3769 36.3744Z" fill="black"/>
<path id="Vector_18" d="M14.247 12.8932C14.247 13.6501 13.5888 14.2858 12.7964 14.2932C12.0088 14.3007 11.3385 13.6427 11.3324 12.8549C11.325 12.0461 11.9539 11.4289 12.7829 11.4301C13.6181 11.4301 14.2457 12.0584 14.247 12.8945V12.8932Z" fill="black"/>
<path id="Vector_19" d="M19.6244 34.9843C20.0078 34.988 20.3045 35.2934 20.3106 35.688C20.3155 36.0503 19.9675 36.3917 19.6097 36.3768C19.2471 36.362 18.9296 36.012 18.9418 35.6397C18.954 35.2638 19.2495 34.9805 19.6256 34.9843H19.6244Z" fill="black"/>
<path id="Vector_20" d="M13.3361 32.0259C12.8965 32.0222 12.5326 31.6376 12.5314 31.1763C12.5314 30.7174 12.8965 30.3514 13.3532 30.3526C13.8172 30.3538 14.2091 30.7385 14.214 31.1998C14.2201 31.6425 13.8086 32.0296 13.3361 32.0247V32.0259Z" fill="black"/>
<path id="Vector_21" d="M18.2214 24.0575C18.5511 24.0773 18.8453 24.3902 18.8234 24.6981C18.8014 25.0024 18.5035 25.2584 18.1848 25.246C17.838 25.2324 17.5926 24.9578 17.6084 24.6016C17.6243 24.2541 17.8697 24.0377 18.2214 24.0587V24.0575Z" fill="black"/>
<path id="Vector_22" d="M12.9551 24.614C12.9429 24.9455 12.7927 25.1545 12.4691 25.1681C12.1602 25.1805 12.0039 24.9789 11.9746 24.6845C11.9453 24.3877 12.1981 24.0711 12.4569 24.0834C12.7854 24.0995 12.916 24.3246 12.9551 24.614Z" fill="black"/>
<path id="Vector_23" d="M42.4405 31.2035C42.4368 31.6623 42.0705 32.0321 41.6187 32.0346C41.178 32.0358 40.7994 31.6549 40.7958 31.2047C40.7921 30.7484 41.1633 30.3464 41.5931 30.3427C42.0461 30.339 42.4454 30.7434 42.4405 31.2035Z" fill="black"/>
<path id="Vector_24" d="M37.4416 24.6684C37.4441 24.9764 37.1535 25.2608 36.8372 25.2596C36.5124 25.2571 36.2511 24.9863 36.2572 24.6561C36.2621 24.3221 36.5197 24.0686 36.8494 24.0698C37.1522 24.0711 37.4392 24.3617 37.4416 24.6684Z" fill="black"/>
<path id="Vector_25" d="M41.9985 24.6796C42.0058 24.3407 42.1475 24.1329 42.4637 24.0958C42.7335 24.0649 43.0022 24.3444 42.9936 24.6388C42.9851 24.9554 42.8141 25.1607 42.504 25.1681C42.189 25.1755 42.029 24.9665 41.9985 24.6796Z" fill="black"/>
<path id="Vector_26" d="M36.7151 7.85714C36.3354 7.8522 36.0338 7.55661 36.0399 7.19671C36.0472 6.81208 36.3622 6.49547 36.7359 6.49918C37.1254 6.50289 37.4086 6.80961 37.3964 7.21279C37.3842 7.59866 37.1058 7.86209 36.7151 7.85714Z" fill="black"/>
<path id="Vector_27" d="M18.9907 7.16703C18.9919 7.53559 18.6561 7.88312 18.3008 7.88188C17.9479 7.88188 17.6268 7.56527 17.617 7.21279C17.606 6.80095 17.8771 6.51155 18.2812 6.50165C18.6817 6.49176 18.9907 6.78116 18.9919 7.16703H18.9907Z" fill="black"/>
</g>
<defs>
<clipPath id="clip0_17_501">
<rect width="55" height="55" fill="white"/>
</clipPath>
</defs>
</svg>
